<?xml version="1.0" standalone="no"?>
<!DOCTYPE svg PUBLIC "-//W3C//DTD SVG 1.1//EN" "http://www.w3.org/Graphics/SVG/1.1/DTD/svg11.dtd" >
<!--
2013-9-30: Created.
-->
<svg>
<metadata>
Created by iconfont
</metadata>
<defs>

<font id="iconfont" horiz-adv-x="1024" >
  <font-face
    font-family="iconfont"
    font-weight="500"
    font-stretch="normal"
    units-per-em="1024"
    ascent="896"
    descent="-128"
  />
    <missing-glyph />
    
    <glyph glyph-name="zanting" unicode="&#58895;" d="M510.408759-64.414823c-60.290131 0-118.797663 11.81714-173.898609 35.122939-53.199643 22.50148-100.970646 54.706973-141.983735 95.720062s-73.218582 88.784092-95.720062 141.983735c-23.305799 55.101969-35.122939 113.608477-35.122939 173.898609 0 60.290131 11.81714 118.797663 35.122939 173.898609 22.50148 53.200666 54.706973 100.970646 95.720062 141.983735 41.013089 41.014112 88.784092 73.218582 141.983735 95.721085 55.101969 23.305799 113.608477 35.122939 173.898609 35.122939s118.797663-11.81714 173.898609-35.122939c53.199643-22.502503 100.970646-54.706973 141.983735-95.721085 41.013089-41.013089 73.218582-88.784092 95.720062-141.983735 23.305799-55.100946 35.122939-113.608477 35.122939-173.898609 0-60.290131-11.81714-118.797663-35.122939-173.898609-22.50148-53.199643-54.706973-100.970646-95.720062-141.983735s-88.784092-73.218582-141.983735-95.720062C629.205399-52.597683 570.69889-64.414823 510.408759-64.414823zM510.408759 765.591905c-102.377692 0-198.62885-39.868009-271.0206-112.260783-72.392774-72.392774-112.260783-168.642908-112.260783-271.0206s39.868009-198.627826 112.260783-271.0206c72.39175-72.392774 168.642908-112.260783 271.0206-112.260783 102.377692 0 198.627826 39.868009 271.0206 112.260783 72.392774 72.392774 112.260783 168.642908 112.260783 271.0206s-39.868009 198.627826-112.260783 271.0206C709.036585 725.723895 612.785427 765.591905 510.408759 765.591905zM348.547301 573.18578l98.417497 0 0-375.608633-98.417497 0 0 375.608633ZM566.595432 573.18578l98.417497 0 0-375.608633-98.417497 0 0 375.608633Z"  horiz-adv-x="1024" />

    
    <glyph glyph-name="down" unicode="&#58925;" d="M1022.976 587.7760000000001L594.944 159.74400000000003c-43.008-43.008-113.664-43.008-156.672 0L9.216 588.8c-12.288 11.264-12.288 30.72 0 43.008 11.264 12.288 30.72 12.288 43.008 0l430.08-429.056c9.216-9.216 21.504-14.336 34.816-14.336 13.312 0 25.6 5.12 34.816 14.336l428.032 428.032c11.264 12.288 30.72 12.288 43.008 0 6.144-6.144 9.216-13.312 9.216-21.504S1029.12 593.9200000000001 1022.976 587.7760000000001z"  horiz-adv-x="1033" />

    
    <glyph glyph-name="remove" unicode="&#58941;" d="M512.175497 120.94686200000001c12.68695 0 22.983457 10.296507 22.983457 22.982434L535.158954 465.685417c0 12.685927-10.296507 22.982434-22.982434 22.982434s-22.983457-10.296507-22.983457-22.982434l0-321.755098C489.193063 131.24336900000003 499.48957 120.94686200000001 512.175497 120.94686200000001zM650.071124 120.94686200000001c12.685927 0 22.982434 10.296507 22.982434 22.982434L673.053558 465.685417c0 12.685927-10.296507 22.982434-22.982434 22.982434s-22.982434-10.296507-22.982434-22.982434l0-321.755098C627.08869 131.24336900000003 637.384174 120.94686200000001 650.071124 120.94686200000001zM374.280894 120.94686200000001c12.685927 0 22.982434 10.296507 22.982434 22.982434L397.263327 465.685417c0 12.685927-10.296507 22.982434-22.982434 22.982434s-22.982434-10.296507-22.982434-22.982434l0-321.755098C351.29846 131.24336900000003 361.593943 120.94686200000001 374.280894 120.94686200000001zM833.930595 741.474624L696.035992 741.474624 696.035992 787.440515c0 25.372877-20.590967 45.964868-45.964868 45.964868L374.280894 833.405383c-25.372877 0-45.965891-20.546965-45.965891-45.964868l0-45.964868L190.420399 741.475648c-25.372877 0-45.964868-20.591991-45.964868-45.964868l0-45.964868c0-25.372877 20.591991-45.964868 45.964868-45.964868l0-574.563918c0-50.745754 41.138956-91.928712 91.930759-91.928712l459.650725-0.002047c50.745754 0 91.929736 41.138956 91.929736 91.930759L833.931618 603.580021c25.372877 0 45.965891 20.545942 45.965891 45.964868l0 45.964868C879.896486 720.882634 859.303472 741.474624 833.930595 741.474624zM374.280894 766.5036709999999c0 12.685927 10.296507 22.982434 22.982434 22.982434l229.825362 0c12.68695 0 22.982434-10.296507 22.982434-22.982434l0-22.982434c-22.246677 0-275.79023 0-275.79023 0L374.280894 766.5036709999999zM787.966751 29.016103000000044c0-25.372877-20.593014-45.963845-45.965891-45.963845L282.351158-16.94774099999995c-25.3739 0-45.965891 20.590967-45.965891 45.963845L236.385267 603.580021c31.578206 0 525.748119 0 551.582507 0L787.967774 29.016103000000044zM810.948161 649.544889L213.402833 649.544889c-12.685927 0-22.982434 10.296507-22.982434 22.981411 0 12.685927 10.296507 22.982434 22.982434 22.982434l597.546352 0c12.685927 0 22.982434-10.296507 22.982434-22.982434C833.930595 659.841396 823.635111 649.544889 810.948161 649.544889z"  horiz-adv-x="1024" />

    
    <glyph glyph-name="iconset0157" unicode="&#58936;" d="M964.608-37.888 742.4 183.296c64.512 68.608 102.4 161.792 102.4 264.192C844.8 665.6 665.6 844.8 448.512 844.8S51.2 665.6 51.2 447.488s179.2-396.288 397.312-396.288c102.4 0 196.608 38.912 264.192 102.4l222.208-222.208c4.096-4.096 8.192-4.096 13.312-4.096 13.312 0 21.504 8.192 21.504 21.504C968.704-47.104 964.608-43.008 964.608-37.888zM448.512 94.208c-196.608 0-354.304 157.696-354.304 354.304S251.904 801.792 448.512 801.792s354.304-157.696 354.304-354.304S644.096 94.208 448.512 94.208z"  horiz-adv-x="1024" />

    
    <glyph glyph-name="yonghu" unicode="&#58937;" d="M502.496 832.864c125.888 0 227.936-100.384 227.936-224.192 0-123.84-102.048-224.224-227.936-224.224-125.888 0-227.936 100.384-227.936 224.224C274.56 732.512 376.64 832.864 502.496 832.864L502.496 832.864zM502.496 832.864c125.888 0 227.936-100.384 227.936-224.192 0-123.84-102.048-224.224-227.936-224.224-125.888 0-227.936 100.384-227.936 224.224C274.56 732.512 376.64 832.864 502.496 832.864L502.496 832.864zM417.024 309.696l189.984 0c162.624 0 294.432-129.632 294.432-289.6l0-18.656c0-63.04-131.84-65.44-294.432-65.44l-189.984 0c-162.624 0-294.432 0.096-294.432 65.44l0 18.656C122.592 180.064 254.4 309.696 417.024 309.696L417.024 309.696zM417.024 309.696"  horiz-adv-x="1024" />

    
    <glyph glyph-name="shrink" unicode="&#59098;" d="M536.832 494.656C535.552 492.352 534.4 489.984 532.48 488 526.208 481.728 517.952 479.168 509.696 479.488 501.504 479.168 493.248 481.728 486.976 488 485.056 489.984 483.904 492.352 482.56 494.656L230.016 748.16C218.048 760.1279999999999 218.048 779.52 230.016 791.488 241.92 803.456 261.312 803.456 273.216 791.488L509.696 554.1759999999999 746.24 791.488C758.144 803.456 777.536 803.456 789.44 791.488 801.408 779.52 801.408 760.1279999999999 789.44 748.16L536.832 494.656ZM483.52 274.75199999999995C484.864 277.05600000000004 485.952 279.424 487.936 281.408 494.208 287.67999999999995 502.464 290.24 510.72 289.91999999999996 518.976 290.24 527.232 287.67999999999995 533.504 281.408 535.488 279.424 536.576 277.05600000000004 537.92 274.75199999999995L791.424 21.248000000000047C803.392 9.279999999999973 803.392-10.111999999999966 791.424-22.08000000000004 779.456-34.048 760.064-34.048 748.096-22.08000000000004L510.72 215.23199999999997 273.344-22.08000000000004C261.376-34.048 241.984-34.048 230.016-22.08000000000004 218.048-10.111999999999966 218.048 9.279999999999973 230.016 21.248000000000047L483.52 274.75199999999995Z"  horiz-adv-x="1024" />

    
    <glyph glyph-name="open" unicode="&#59101;" d="M791.424 490.496C779.456 478.528 760.064 478.528 748.096 490.496L510.72 727.808 273.344 490.496C261.376 478.528 241.984 478.528 230.016 490.496 218.048 502.464 218.048 521.856 230.016 533.8240000000001L483.52 787.328C484.864 789.6320000000001 485.952 792 487.936 793.984 494.208 800.256 502.464 802.816 510.72 802.496 518.976 802.816 527.232 800.256 533.504 793.984 535.488 792 536.576 789.6320000000001 537.92 787.328L791.424 533.8240000000001C803.392 521.856 803.392 502.464 791.424 490.496ZM273.216 280.06399999999996L509.696 42.75199999999995 746.24 280.06399999999996C758.144 292.03200000000004 777.536 292.03200000000004 789.44 280.06399999999996 801.408 268.096 801.408 248.70399999999995 789.44 236.736L536.832-16.76800000000003C535.552-19.072000000000003 534.4-21.440000000000055 532.48-23.423999999999978 526.208-29.696000000000026 517.952-32.25599999999997 509.696-31.936000000000035 501.504-32.25599999999997 493.248-29.696000000000026 486.976-23.423999999999978 485.056-21.440000000000055 483.904-19.072000000000003 482.56-16.76800000000003L230.016 236.736C218.048 248.70399999999995 218.048 268.096 230.016 280.06399999999996 241.92 292.03200000000004 261.312 292.03200000000004 273.216 280.06399999999996Z"  horiz-adv-x="1024" />

    
    <glyph glyph-name="good" unicode="&#58955;" d="M841.900615 487.813391L664.015206 487.813391c-4.087085 0-7.605212 1.823532-9.635451 4.979408-2.044566 3.188622-2.387373 6.788613-0.932232 10.313903 10.105149 19.105127 57.494459 115.41052 44.899606 217.797421-3.51915 28.749788-18.948561 67.455321-72.482825 88.576361-13.886265 5.465478-39.682791 8.026814-59.192124 8.601912-46.860261 1.38044-56.329936-7.693216-60.373019-11.568477-0.164752-0.155543-0.324388-0.316202-0.484024-0.476861C490.730581 790.628114 491.958548 768.544143 493.514997 740.584348c0.795109-14.287401 1.694595-30.466895 0.857531-48.953945-4.579295-49.570999-11.171434-76.334549-24.283056-98.636484-40.689724-69.270666-109.423155-104.141872-122.656551-105.213273l-96.509031 0L86.587054 487.780645c-11.761881 0-21.296025-9.534144-21.296025-21.296025L65.291029 51.73861699999998c0-11.760858 9.534144-21.296025 21.296025-21.296025l164.337859 0c0.858554 0 1.700735 0.065492 2.533706 0.164752l104.601336 0c1.191128-0.969071 2.534729-2.081405 3.739161-3.082198 22.952758-19.025309 83.921341-69.563332 184.571692-69.563332l209.634508 0c53.634548 0 96.863095 29.224602 112.819508 76.270081 0.13917 0.409322 0.26606 0.823761 0.38067 1.24127 2.246157 8.247848 8.025791 25.420973 15.344476 47.162136 27.735691 82.408895 74.159 220.339314 74.159 294.15653C958.708971 449.423035 918.317029 487.813391 841.900615 487.813391zM107.883079 445.187571l121.744785 0 0-372.152928L107.883079 73.03464299999996 107.883079 445.187571zM844.182588 96.22173799999996c-7.649214-22.723537-13.225209-39.289841-15.882736-48.862871-10.205433-29.319769-37.183877-46.803979-72.293513-46.803979l-209.634508 0c-85.292572 0-135.816269 41.879829-157.38961 59.763129-9.691733 8.03193-15.541975 12.881378-24.845874 12.881378l-91.914386 0L272.221962 445.187571l75.364455 0c20.070104 0 51.52142 17.555841 74.262354 33.985022 24.394596 17.623379 58.936297 47.932686 84.96409 92.242867 19.039635 32.386618 25.602098 68.703755 30.019711 116.802216 0.029676 0.317225 0.051165 0.63445 0.066515 0.952698 0.975211 20.862143-0.039909 39.114856-0.855484 53.780881-0.63445 11.403724-1.402953 25.209148-0.179079 31.395034 15.941064 3.081175 61.369719 0.632403 74.387197-4.490268 27.712155-10.934027 42.701544-28.639271 45.822628-54.138014 11.341303-92.193749-35.07689-182.903703-40.407292-192.944384-0.493234-0.932232-0.74906-1.486864-0.74906-1.486864-7.703449-16.70138-6.353708-35.947723 3.624551-51.509141 9.889231-15.376199 26.888394-24.556279 45.473681-24.556279l177.88541 0c52.712549 0 74.215282-19.825534 74.215282-68.429509C916.115897 309.94947 869.322152 170.915927 844.182588 96.22173799999996z"  horiz-adv-x="1024" />

    
    <glyph glyph-name="silence" unicode="&#58890;" d="M854.064629 670.891242C864.969105 682.1995870000001 864.641704 700.206637 853.333359 711.1111129999999 842.025011 722.01559 824.017963 721.688189 813.113486 710.3798429999999L107.524429-8.700143000000025C96.619953-20.00849100000005 96.947354-38.01553899999999 108.255699-48.92001600000003 119.564045-59.824491999999964 137.571095-59.497090999999955 148.475571-48.18874600000004L854.064629 670.891242ZM399.82679 56.01799100000005C407.183349 52.320785 430.123685 40.79163700000004 445.240889 33.19466699999998 523.605333-6.200888999999961 523.605333-6.200888999999961 549.717333-19.342221999999992 615.623111-52.48000000000002 683.064889-11.150221999999985 683.064889 62.606222L683.064889 343.12533299999996 682.89505 343.12533299999996 682.89505 343.12533299999996C681.337978 357.37846 669.266116 368.44088899999997 654.620444 368.44088899999997 639.948242 368.44088899999997 627.899344 357.37846 626.345478 343.12533299999996L626.176 343.12533299999996 626.176 333.027556 626.176 62.606222C626.176 62.606222 603.448889 17.322667000000024 575.288889 31.488000000000056L423.495649 107.78852099999995 423.479293 107.75673500000005C423.376119 107.80413199999998 423.272528 107.85098500000004 423.168523 107.89729 408.824641 114.28359699999999 392.011708 107.85126100000002 385.613833 93.48139500000002 379.6198 80.01858000000004 384.940911 64.37052300000005 397.476938 57.21868500000005L397.468877 57.20301800000004C397.468877 57.20301800000004 397.586247 57.14403000000004 397.810753 57.031199000000015 398.463855 56.67012599999998 399.136051 56.33190400000001 399.826779 56.01799700000004ZM183.096889 204.97083999999995L183.096889 205.027556 144.128 205.027556C112.725333 205.027556 87.096889 230.68444399999998 86.869333 262.144L85.333333 489.216C85.105778 520.7893329999999 110.222222 546.360889 141.880889 546.360889L230.087111 546.360889 575.203556 719.843556C603.335111 734.008889 626.176 719.900444 626.176 688.384L626.176 672 626.345478 672 626.345478 672C627.899344 657.7468719999999 639.948242 646.684444 654.620444 646.684444 669.266116 646.684444 681.337978 657.7468719999999 682.89505 672L683.064889 672 683.064889 688.384C683.064889 762.225778 615.623111 803.84 549.632 770.673778L216.604444 603.249778 141.880889 603.249778C78.648889 603.249778 28.017778 551.964444 28.444444 488.846222L29.980444 261.774222C30.407111 199.05422199999998 81.408 148.13866700000005 144.128 148.13866700000005L183.096889 148.11022200000002 183.096889 148.138553C183.521215 148.119731 183.947948 148.11022200000002 184.376889 148.11022200000002 200.106667 148.11022200000002 212.821333 160.85333300000002 212.821333 176.554667 212.821333 192.284444 200.106667 204.99911099999997 184.376889 204.99911099999997 183.947948 204.99911099999997 183.521215 204.98962200000005 183.096889 204.97083999999995L183.096889 204.97083999999995Z"  horiz-adv-x="1024" />

    
    <glyph glyph-name="xiangyou" unicode="&#59011;" d="M675.027968 382.897735C674.403822 383.52188 292.824911 2.899226 292.824911 2.899226 279.035374-10.890328 279.035374-33.247603 292.824911-47.037158 306.614466-60.826695 328.971741-60.826695 342.761295-47.037158L724.964334 335.165899C751.909906 362.111453 751.929097 405.869338 724.964334 432.834101L342.761295 815.037158C328.971741 828.826695 306.614466 828.826695 292.824911 815.037158 279.035374 801.247603 279.035374 778.890328 292.824911 765.100774L675.027968 382.897735Z"  horiz-adv-x="1024" />

    
    <glyph glyph-name="yinyue" unicode="&#59008;" d="M243.38404592 36.38571166999998C177.02131784 36.38571166999998 121.71904501 90.10792005999997 121.71904501 158.05071257999998s53.72220839 121.66500092 121.66500092 121.66500092c26.86110385 0 52.14214326-9.48038943 74.26305237-25.2810394l6.32025985-4.74019472V639.97052153c0 23.70097427 18.96077956 42.66175381 41.08168869 42.66175314l406.07669143 47.40194853h3.16012958C796.40677767 731.61428833 816.94762167 712.65350877 816.94762167 688.95253451v-456.63876954c0-33.1813637-12.64051971-63.20259781-36.34149397-85.32350695-22.12090913-22.12090913-53.72220839-34.76142883-85.32350694-34.76142884-66.36272808 0-121.66500092 53.72220839-121.66500092 121.66500092 0 66.36272808 53.72220839 121.66500092 121.66500092 121.66500092 26.86110385 0 53.72220839-9.48038943 74.26305237-25.28103941l6.32025986-4.74019471V537.26630017l-410.81688615-44.24181897v-334.97376861c-1.58006513-67.94279253-55.30227283-121.66500092-121.66500092-121.66500092z m1e-8 200.66824802c-44.24181827 0-80.58331223-36.34149397-80.58331224-80.58331225s36.34149397-80.58331223 80.58331224-80.58331223 80.58331223 36.34149397 80.58331222 80.58331223c-1.58006513 45.8218834-36.34149397 80.58331223-80.58331222 80.58331225z m451.89857483 75.8431175c-44.24181827 0-80.58331223-36.34149397-80.58331223-80.58331223s36.34149397-80.58331223 80.58331223-80.58331223 80.58331223 36.34149397 80.58331223 80.58331223-36.34149397 80.58331223-80.58331223 80.58331223z m-331.81363906 221.20909271l410.81688615 44.24181827V690.5325996500001l-406.07669142-47.40194854h-4.74019473v-109.02448121z"  horiz-adv-x="1024" />

    
    <glyph glyph-name="random" unicode="&#58891;" d="M841.15985589 243.38581768999995a32.12740366 32.12740366 0 0 1-24.98798089 10.80648962c-18.04326911-0.68149045-32.0625-15.90144269-31.38100955-33.94471097 0.38942276-9.83293232 5.25721179-18.17307724 12.33173089-23.88461544l38.87740366-38.9098559a238.29447134 238.29447134 0 0 0-114.75 50.91706769L363.43509634 594.06129776A304.36658679 304.36658679 0 0 1 134.58413455 697.81009634a32.45192275 32.45192275 0 1 1 0-64.90384635h0.03245224c68.92788455 0 134.51322134-29.75841321 180.62740366-82.29807724l357.29567276-385.62620141 6.81490448-6.16586545a304.59375001 304.59375001 0 0 1 159.890625-67.37019268l-43.29086544-42.09014411 0.81129775-0.77884635a32.19230732 32.19230732 0 0 1-14.50600955-27.77884551c0.71394268-18.04326911 15.90144269-32.12740366 33.91225955-31.41346179a32.0625 32.0625 0 0 1 24.69591321 13.75961544l0.32451911-0.3245191 122.34375 118.83894187-121.98677866 122.11658679-0.38942276-0.38942278zM840.90024045 780.53004775a32.12740366 32.12740366 0 0 1-24.72836545 13.75961546 32.67908679 32.67908679 0 0 1-33.87980732-31.41346097 32.12740366 32.12740366 0 0 1 14.50600956-27.74639492l-0.81129858-0.84375 40.04567359-38.94230733a301.640625 301.640625 0 0 1-179.19951994-87.5552882l-105.92307642-114.81490447 0.16225956-0.16225957a32.12740366 32.12740366 0 0 1-8.76201911-21.84014409 32.45192275 32.45192275 0 0 1 32.45192276-32.45192276 32.12740366 32.12740366 0 0 1 23.68990365 10.61177865l0.16225956-0.16225956 104.3004809 113.12740367a237.02884634 237.02884634 0 0 0 137.33653903 68.34375l-43.03124999-43.09615365a32.22475955 32.22475955 0 0 1-12.39663456-23.91706768c-0.71394268-18.04326911 13.30528821-33.23076911 31.34855731-33.94471099a32.12740366 32.12740366 0 0 1 24.98798089 10.80649045l0.38942277-0.35697134 121.98677865 122.08413455-122.34375 118.83894269-0.3245191-0.32451994zM432.71995225 348.6598559a32.03004777 32.03004777 0 0 1-23.625-10.51442358l-0.16225957 0.12980813-110.20673089-118.87139411A238.29447134 238.29447134 0 0 0 134.58413455 154.24038455000004v-0.38942276c-0.71394268 0.03245223-1.29807724 0.38942276-2.0120191 0.38942276a32.45192275 32.45192275 0 1 1 0-64.90384634c0.71394268 0 1.29807724 0.38942276 2.0120191 0.38942358v-0.38942358c77.91706768 0 152.03725955 29.4338941 210.1911059 84.375l111.73197134 120.42908679-0.16225954 0.12980731a32.03004777 32.03004777 0 0 1 8.82692275 21.9375 32.45192275 32.45192275 0 0 1-32.45192275 32.45192358"  horiz-adv-x="1063" />

    
    <glyph glyph-name="plus" unicode="&#59128;" d="M131.18046756 357.75297763000003h371.17001323v-371.17001324a26.51214381 26.51214381 0 1 1 53.02428762 0v371.17001324h371.17001323a26.51214381 26.51214381 0 1 1 0 53.02428762h-371.17001323v371.17001322a26.51214381 26.51214381 0 1 1-53.02428762 0v-371.17001322h-371.17001323a26.51214381 26.51214381 0 1 1 0-53.02428762z"  horiz-adv-x="1024" />

    
    <glyph glyph-name="play" unicode="&#59407;" d="M275.2 710.4v-656L812.8 384z"  horiz-adv-x="1024" />

    
    <glyph glyph-name="horn" unicode="&#58947;" d="M513.6-13.600000000000023c-7.2 0-13.6 2.4-19.2 7.2 0 0-40.8 36.8-87.2 76-78.4 64.8-103.2 77.6-108.8 79.2H92.8c-12.8 0-23.2 10.4-23.2 24V595.2c0 12.8 10.4 24 23.2 24H278.4c6.4 2.4 32.8 13.6 120.8 80 51.2 38.4 97.6 76 97.6 76 4.8 4 11.2 6.4 17.6 6.4 4 0 8.8-0.8 12.8-3.2 9.6-4.8 16-15.2 16-26.4v-736c0-11.2-6.4-22.4-16.8-27.2-4.8-1.6-8.8-2.4-12.8-2.4zM300 196.79999999999995c16.8 0 42.4-7.2 147.2-93.6 14.4-12 29.6-24.8 45.6-38.4l4.8-4V711.2l-4.8-3.2c-20-15.2-39.2-30.4-57.6-44C320 577.6 294.4 571.2 277.6 571.2H134.4c-17.6 0-19.2-11.2-19.2-23.2V224c0-20.8 5.6-26.4 24.8-26.4h158.4l1.6-0.8z m457.6-142.4c-12.8 0-23.2 10.4-23.2 24 0 10.4 7.2 17.6 14.4 21.6 99.2 59.2 160 168 160 284.8 0 116.8-61.6 225.6-160 284.8-8.8 4.8-13.6 12.8-13.6 21.6 0 12.8 10.4 24 23.2 24 4.8 0 8.8-1.6 14.4-4.8 112.8-67.2 182.4-192 182.4-324.8 0-133.6-70.4-257.6-183.2-324.8-5.6-4.8-9.6-6.4-14.4-6.4z m-79.2 134.4c-12.8 0-23.2 10.4-23.2 24 0 8.8 4 16 11.2 20.8 54.4 30.4 88 88 88 150.4 0 61.6-32.8 118.4-84.8 149.6-7.2 4-11.2 12-11.2 20.8 0 12.8 10.4 24 23.2 24 4 0 10.4-2.4 13.6-4 65.6-39.2 107.2-112 107.2-189.6 0-79.2-42.4-152.8-110.4-192-1.6 0-8-4-13.6-4z"  horiz-adv-x="1024" />

    
    <glyph glyph-name="loop" unicode="&#58989;" d="M902 439.75555555c-18 0-30-12-30-30v-81c0-102-81-186-186-186H221l39 36c6 6 12 15 12 24 0 18-15 33-33 33-9 0-21-3-27-9l-102-93c-15-12-12-33 0-45l102-90c6-6 18-12 27-12 18 0 33 12 36 30 0 12-6 21-15 27l-45 42h468c138 0 249 111 249 243v81c0 18-12 30-30 30zM122 364.75555555000005c18 0 30 12 30 30v84c0 105 84 189 186 192h465l-39-36c-6-6-12-15-12-24 0-18 15-33 33-33 9 0 21 3 27 9l99 93c15 12 12 33 0 45l-102 90c-6 6-18 12-27 12-18 0-33-12-36-30 0-12 6-21 15-27l45-42H341C203 727.75555555 92 616.75555555 92 475.75555555v-81c0-18 12-30 30-30zM542 256.75555555000005V556.75555555h-45L422 502.75555555l15-39 57 39V256.75555555000005z"  horiz-adv-x="1024" />

    
    <glyph glyph-name="xin" unicode="&#58915;" d="M1066.676944 794.974109A351.539301 351.539301 0 0 1 584.680751 805.571448a351.539301 351.539301 0 0 1-481.996194-10.597339 344.230792 344.230792 0 0 1 0-490.035554l403.795143-400.140888a109.627641 109.627641 0 0 1 156.402101 0l403.795143 399.775463a344.230792 344.230792 0 0 1 0 490.400979z m-52.255842-438.510563L610.625959-43.677342a36.542547 36.542547 0 0 0-51.890417 0L154.574973 356.463546a271.876549 271.876549 0 0 0 0 386.985572A277.357931 277.357931 0 0 0 534.982887 749.661351L584.680751 706.906571 634.013189 749.661351a277.357931 277.357931 0 0 0 380.407913-8.03936 271.876549 271.876549 0 0 0 0-385.158445zM338.018559 713.118804A155.305824 155.305824 0 0 1 182.712735 557.81298a18.271273 18.271273 0 0 1 36.542546 0A118.763277 118.763277 0 0 0 338.018559 676.576257a18.271273 18.271273 0 0 1 0 36.542547z"  horiz-adv-x="1170" />

    
    <glyph glyph-name="skin" unicode="&#58951;" d="M772.8 800v-64l163.2-161.6-91.2-91.2c-12.8 11.2-27.2 16-43.2 16-36.8 0-65.6-28.8-65.6-65.6V96c0-35.2-28.8-64-64-64H352c-35.2 0-64 28.8-64 64V433.6c0 36.8-28.8 65.6-65.6 65.6-16 0-32-6.4-43.2-16l-91.2 91.2L249.6 736h40l1.6-1.6C336 667.2 420.8 624 512 624c91.2 0 176 41.6 220.8 110.4 0 1.6 1.6 1.6 1.6 1.6h38.4V800M291.2 800H256c-22.4 0-38.4-6.4-49.6-19.2L43.2 619.2c-25.6-25.6-25.6-65.6 0-89.6l94.4-94.4c11.2-11.2 27.2-17.6 41.6-17.6s30.4 6.4 41.6 17.6h1.6c1.6 0 1.6 0 1.6-1.6V96c0-70.4 57.6-128 128-128h320c70.4 0 128 57.6 128 128V433.6c0 1.6 0 1.6 1.6 1.6h1.6c11.2-11.2 27.2-17.6 41.6-17.6 16 0 30.4 6.4 41.6 17.6l94.4 94.4c25.6 25.6 25.6 65.6 0 89.6L819.2 780.8c-12.8 12.8-28.8 19.2-46.4 19.2h-40c-22.4 0-41.6-11.2-54.4-30.4-33.6-49.6-96-81.6-168-81.6s-134.4 33.6-168 81.6C332.8 788.8 312 800 291.2 800z"  horiz-adv-x="1024" />

    
    <glyph glyph-name="back" unicode="&#58959;" d="M691.8656 723.456a32 32 0 0 1-45.2608 45.2096l-358.4-358.4a37.12 37.12 0 0 1 0-52.5312l358.4-358.4a32 32 0 0 1 45.2608 45.2608L352.4096 384l339.456 339.456z"  horiz-adv-x="1024" />

    
    <glyph glyph-name="mv" unicode="&#59146;" d="M821.375 46.5H202.625c-46.40625 0-84.375 37.96875-84.375 84.375V637.125c0 46.40625 37.96875 84.375 84.375 84.375h618.75c46.40625 0 84.375-37.96875 84.375-84.375v-506.25c0-46.40625-37.96875-84.375-84.375-84.375zM202.625 665.25c-15.46875 0-28.125-12.65625-28.125-28.125v-506.25c0-15.46875 12.65625-28.125 28.125-28.125h618.75c15.46875 0 28.125 12.65625 28.125 28.125V637.125c0 15.46875-12.65625 28.125-28.125 28.125H202.625z m240.46875-421.875c-4.21875 0-9.84375 1.40625-14.0625 4.21875-8.4375 5.625-14.0625 14.0625-14.0625 23.90625V496.5c0 9.84375 5.625 19.6875 14.0625 23.90625 8.4375 5.625 19.6875 5.625 28.125 0l195.46875-112.5c8.4375-5.625 14.0625-14.0625 14.0625-23.90625s-5.625-19.6875-14.0625-23.90625l-195.46875-112.5c-4.21875-2.8125-9.84375-4.21875-14.0625-4.21875z m28.125 203.90625v-127.96875l111.09375 63.28125L471.21875 447.28125z"  horiz-adv-x="1024" />

    
    <glyph glyph-name="fullscreen" unicode="&#58943;" d="M475.3408 45.465599999999995h-266.24a37.2736 37.2736 0 0 0-37.2736 37.2736v266.24a37.2736 37.2736 0 1 0 74.5472 0v-228.9664h228.9664a37.2736 37.2736 0 0 0 0-74.5472zM830.3104 400.4352a37.2736 37.2736 0 0 0-37.2736 37.2736V666.6752h-228.9664a37.2736 37.2736 0 1 0 0 74.5472h266.24a37.2736 37.2736 0 0 0 37.2736-37.2736v-266.24a37.2736 37.2736 0 0 0-37.2736-37.2736z"  horiz-adv-x="1024" />

    
    <glyph glyph-name="minus" unicode="&#60281;" d="M128 384h768v-46.933333H128z"  horiz-adv-x="1024" />

    
    <glyph glyph-name="bofang" unicode="&#59185;" d="M826.820379-4.364673a1.688226 1.688226 0 0 1 0 3.376452 1.688226 1.688226 0 0 1 0-3.376452zM512-127.999088A512.09521 512.09521 0 0 0 312.710552 855.752693a512.122222 512.122222 0 0 0 398.590151-943.504474 508.808797 508.808797 0 0 0-199.300703-40.247307z m0 984.595894a472.703271 472.703271 0 0 1-183.949101-908.062984A472.731408 472.731408 0 0 1 695.960356 819.478344 469.6307 469.6307 0 0 1 512 856.608061zM357.651127 142.420947V625.579964l418.432434-241.573881z m39.391939 414.932179v-346.70534l300.256616 173.324533z"  horiz-adv-x="1024" />

    
    <glyph glyph-name="share" unicode="&#58914;" d="M857.81333333 392.32c-17.38666667 0-31.46666667-14.08-31.46666666-31.46666667v-293.22666666H196.16V697.81333333h288.21333333c17.38666667 0 31.46666667 14.08 31.46666667 31.46666667s-14.08 31.46666667-31.46666667 31.46666667H196.16c-10.13333333 0-19.2-1.28-26.88-3.84l15.68-47.89333334-15.68 47.89333334c-16.21333333-5.33333333-26.98666667-16.10666667-32.32-32.32-2.56-7.68-3.84-16.74666667-3.84-26.88v-630.18666667c0-10.24 1.28-19.2 3.84-26.98666667 5.33333333-16.10666667 16.10666667-26.98666667 32.32-32.21333333l15.68 47.89333333-15.68-47.89333333c7.78666667-2.56 16.74666667-3.84 26.88-3.84h630.18666667c10.24 0 19.2 1.28 26.98666666 3.84l-15.68 47.89333333 15.68-47.89333333c16.21333333 5.22666667 26.98666667 16.10666667 32.32 32.21333333 2.56 7.78666667 3.84 16.74666667 3.84 26.98666667V360.74666666999997c-0.10666667 17.49333333-14.18666667 31.57333333-31.68 31.57333333zM885.65333333 724.69333333c-5.33333333 16.21333333-16.10666667 26.98666667-32.32 32.32l-15.68-47.89333333 15.68 47.89333333c-7.78666667 2.56-16.74666667 3.84-26.98666666 3.84H666.66666667c-17.38666667 0-31.46666667-14.08-31.46666667-31.46666666s14.18666667-31.46666667 31.46666667-31.46666667h104.64l-301.76-301.86666667c-12.37333333-12.26666667-12.37333333-32.21333333 0-44.58666666 6.18666667-6.18666667 14.18666667-9.17333333 22.29333333-9.17333334 8 0 16.10666667 3.09333333 22.29333333 9.17333334L826.02666667 663.46666667c0.10666667 0.10666667 0.10666667 0.32 0.32 0.42666666V533.33333333c0-17.38666667 14.08-31.46666667 31.46666666-31.46666666s31.57333333 14.08 31.57333334 31.46666666V697.81333333c0 10.24-1.28 19.2-3.73333334 26.88z"  horiz-adv-x="1024" />

    
    <glyph glyph-name="playlist-menu" unicode="&#58996;" d="M838.99432863 733.59277518l-186.33127437-38.02037807c-13.51137403-2.82796201-23.25213204-14.61113702-23.25213205-28.43672906v-412.09690783c0-23.09502305-15.86800901-43.20497508-38.49170507-48.54668107L534.04575904 193.13781412000003c-34.24976206-8.01255901-61.27251012-37.39194207-61.42961915-72.58435814-0.31421799-48.07535409 44.30473808-83.58198817 90.96611119-72.74146715l29.85071007 6.91279599c48.70379009 11.31184801 83.26777017 53.73127811 85.62440516 103.22061322h0.47132701v372.34833075c0 10.84052103 7.69834101 20.26706103 18.38175304 22.46658704l150.35331329 30.63625506c10.84052103 2.19952601 18.69597103 11.78317502 18.69597104 22.93791404v104.47748521c0.15710901 14.76824603-13.35426503 25.76587604-27.96540206 22.78080504zM166.72491631 640.11291999h375.96183773v-33.14999904H166.72491631zM166.72491631 508.61268673h375.96183773v-33.14999905H166.72491631zM166.72491631 377.11245346h375.96183773V343.96245442H166.72491631zM166.72491631 245.61222020000002h202.98482839v-33.14999904H166.72491631z"  horiz-adv-x="1024" />

    
    <glyph glyph-name="sequence" unicode="&#59394;" d="M761.70666667 201.60000000000002l-133.33333334 213.33333333h105.38666667V749.01333333h53.33333333V414.93333333h107.94666667l-133.33333333-213.33333333zM555.41333333 749.01333333h-469.33333333v-53.33333333h469.33333333v53.33333333z m0-225.6h-469.33333333v-53.33333333h469.33333333v53.33333333z m0-225.49333333h-469.33333333v-53.33333333h469.33333333v53.33333333z m-469.33333333-225.6v-53.33333333h851.84v53.33333333H86.08z"  horiz-adv-x="1024" />

    
    <glyph glyph-name="github" unicode="&#59186;" d="M511.542857 881.942857C228.914286 882.057143 0 653.257143 0 370.857143 0 147.542857 143.2-42.285714 342.628571-112c26.857143-6.742857 22.742857 12.342857 22.742858 25.371429v88.571428c-155.085714-18.171429-161.371429 84.457143-171.771429 101.6C172.571429 139.428571 122.857143 148.571429 137.714286 165.714286c35.314286 18.171429 71.314286-4.571429 113.028571-66.171429 30.171429-44.685714 89.028571-37.142857 118.857143-29.714286 6.514286 26.857143 20.457143 50.857143 39.657143 69.485715-160.685714 28.8-227.657143 126.857143-227.657143 243.428571 0 56.571429 18.628571 108.571429 55.2 150.514286-23.314286 69.142857 2.171429 128.342857 5.6 137.142857 66.4 5.942857 135.428571-47.542857 140.8-51.771429 37.714286 10.171429 80.8 15.542857 129.028571 15.542858 48.457143 0 91.657143-5.6 129.714286-15.885715 12.914286 9.828571 76.914286 55.771429 138.628572 50.171429 3.314286-8.8 28.228571-66.628571 6.285714-134.857143 37.028571-42.057143 55.885714-94.514286 55.885714-151.2 0-116.8-67.428571-214.971429-228.571428-243.314286a145.714286 145.714286 0 0 0 43.542857-104v-128.571428c0.914286-10.285714 0-20.457143 17.142857-20.457143 202.4 68.228571 348.114286 259.428571 348.114286 484.685714 0 282.514286-229.028571 511.2-511.428572 511.2z"  horiz-adv-x="1024" />

    
    <glyph glyph-name="playlist" unicode="&#58932;" d="M152 459c0 33 23.535 46.77 52.29 30.585l135.405-76.17c28.755-16.185 28.755-42.66 0-58.83l-135.405-76.17C175.535 262.23 152 276 152 309V459zM872 219a30 30 0 0 0-30-30H482a30 30 0 1 0 0 60h360a30 30 0 0 0 30-30zM872 714a30 30 0 0 0-30-30H182a30 30 0 1 0 0 60h660a30 30 0 0 0 30-30zM872 54a30 30 0 0 0-30-30H182a30 30 0 1 0 0 60h660a30 30 0 0 0 30-30zM872 549a30 30 0 0 0-30-30H482a30 30 0 1 0 0 60h360a30 30 0 0 0 30-30zM872 384a30 30 0 0 0-30-30H482a30 30 0 1 0 0 60h360a30 30 0 0 0 30-30z"  horiz-adv-x="1024" />

    
    <glyph glyph-name="forward" unicode="&#58901;" d="M724.529245 405.247925L342.766527 787.110634c-11.698858 11.698858-30.697002 11.698858-42.39586 0s-11.698858-30.697002 0-42.39586l381.762718-381.862709c11.698858-11.698858 30.697002-11.698858 42.39586 0 11.798848 11.698858 11.798848 30.697002 0 42.39586zM724.629235 406.147837c-11.698858 11.698858-30.697002 11.698858-42.395859 0l-381.962699-381.962699c-11.698858-11.698858-11.698858-30.697002 0-42.39586s30.697002-11.698858 42.395859 0l381.962699 381.962699c11.698858 11.698858 11.698858 30.697002 0 42.39586z"  horiz-adv-x="1024" />

    
    <glyph glyph-name="pause" unicode="&#58911;" d="M413 645.1h4.2c13.5 0 24.5-11 24.5-24.5v-504.1c0-13.5-11-24.5-24.5-24.5H413c-13.5 0-24.5 11-24.5 24.5V620.6c0 13.5 11 24.5 24.5 24.5zM652 645.1h4.2c13.5 0 24.5-11 24.5-24.5v-504.1c0-13.5-11-24.5-24.5-24.5H652c-13.5 0-24.5 11-24.5 24.5V620.6c0 13.5 11 24.5 24.5 24.5z"  horiz-adv-x="1024" />

    
    <glyph glyph-name="home" unicode="&#59450;" d="M762.77551-33.95918400000005H261.22449c-40.75102 0-74.187755 33.436735-74.187755 74.710204v288.914286c0 6.791837-5.22449 12.016327-11.493878 12.016327h-27.689796c-21.942857 0-40.75102 12.538776-49.110204 32.914285-8.359184 19.853061-3.657143 42.840816 11.493878 58.514286l341.159183 343.771429c15.673469 16.195918 37.616327 25.077551 60.604082 25.077551s44.930612-8.881633 61.126531-25.6L914.285714 432.587755c15.15102-15.673469 19.853061-38.661224 11.493878-58.514286-8.359184-20.37551-27.167347-32.914286-49.110204-32.914285h-27.689796c-6.269388 0-11.493878-5.22449-11.493878-12.016327v-288.914286c-0.522449-40.75102-33.959184-74.187755-74.710204-74.187755zM512 760.163265c-12.016327 0-22.987755-4.702041-31.346939-13.061224L139.493878 403.330612c-5.22449-5.22449-3.657143-10.971429-2.612245-13.061224 1.044898-2.089796 3.657143-7.314286 10.971428-7.314286h27.689796c29.257143 0 53.289796-24.032653 53.289796-53.812245v-288.914286c0-17.763265 14.628571-32.914286 32.391837-32.914285h501.55102c17.763265 0 32.391837 14.628571 32.391837 32.914285v288.914286c0 29.779592 24.032653 53.812245 53.289796 53.812245h27.689796c6.791837 0 9.926531 5.22449 10.971428 7.314286 1.044898 2.089796 2.612245 7.836735-2.612245 13.061224L543.346939 747.102041c-8.359184 8.359184-19.330612 13.061224-31.346939 13.061224zM663.510204-33.95918400000005H360.489796v219.428572c0 45.97551 37.616327 83.591837 83.591837 83.591836h135.836734c45.97551 0 83.591837-37.616327 83.591837-83.591836v-219.428572z m-261.22449 41.795919h219.428572v177.632653c0 22.987755-18.808163 41.795918-41.795919 41.795918H444.081633c-22.987755 0-41.795918-18.808163-41.795919-41.795918v-177.632653z"  horiz-adv-x="1024" />

    
    <glyph glyph-name="prev" unicode="&#58940;" d="M364.302083 430.397181L687.954365 677.411706c38.416414 29.327534 93.791393 1.929039 93.791392-46.396277v-494.029051c0-48.325316-55.374979-75.725617-93.791392-46.398084L364.302083 337.60281899999995c-30.600916 23.357989-30.600916 69.436372 0 92.794362zM238.945254 115.20160299999998V444.315883v164.562559c0 19.628152-5.904521 60.475733 17.057907 75.841215 25.523642 17.068744 59.747828-1.210165 59.747828-31.919454v-493.676839c0-19.628152 5.915358-60.473927-17.047069-75.841215-25.53448-17.068744-59.758666 1.211971-59.758666 31.919454z"  horiz-adv-x="1024" />

    
    <glyph glyph-name="next" unicode="&#58942;" d="M655.706179 430.397181L332.053897 677.411706c-38.414608 29.327534-93.791393 1.929039-93.791392-46.396277v-494.029051c0-48.325316 55.376785-75.725617 93.791392-46.398084l323.652282 247.014525c30.602722 23.357989 30.602722 69.436372 0 92.794362zM781.064814 115.20160299999998V444.315883v164.562559c0 19.628152 5.904521 60.475733-17.057907 75.841215-25.523642 17.068744-59.747828-1.210165-59.747828-31.919454v-493.676839c0-19.628152-5.915358-60.473927 17.047069-75.841215 25.532673-17.068744 59.758666 1.211971 59.758666 31.919454z"  horiz-adv-x="1024" />

    
    <glyph glyph-name="logo" unicode="&#59034;" d="M512 384m-512 0a512 512 0 1 1 1024 0 512 512 0 1 1-1024 0ZM635.083 656.146c0 9.422 1.708 18.645 4.962 27.599l-237.354-33.282c-7.011-2.031-10.515-6.003-10.515-12.013v-387.263c0-16.019-8.011-24.031-24.03-24.031h-60.073c-32.039 0-58.073-7.759-78.098-23.272-20.024-15.551-30.033-35.825-30.033-60.828 0-25.029 10.009-45.302 30.033-60.825 20.025-15.55 46.06-23.275 78.098-23.275 32.04 0 58.067 7.726 78.092 23.275 20.023 15.52 30.04 35.796 30.04 60.825V469.987c0 13.5 11.222 15.319 11.222 15.319l335.742 46.087c-77.579 27.919-128.086 73.391-128.086 124.753zM800.673 323.27200000000005c0-16.019-8.009-24.028-24.028-24.028H716.57c-32.037 0-58.072-7.758-78.098-23.275-20.021-15.549-30.033-35.824-30.033-60.824 0-25.032 10.013-45.309 30.033-60.825 20.025-15.553 46.061-23.283 78.098-23.283 32.041 0 58.068 7.73 78.094 23.283 20.021 15.517 30.036 35.793 30.036 60.825V514.2080000000001a495.18 495.18 0 0 0-24.027 5.625v-196.561zM820.195 704.744c-2.002 2-5.004 2.999-9.009 2.999l-171.142-23.998c-3.254-8.954-4.962-18.177-4.962-27.599 0-51.362 50.507-96.834 128.087-124.754l30.725 4.218s6.778 1.013 6.778-7.625v-8.152a494.007 494.007 0 0 1 24.027-5.625v181.52c0.001 3.978-1.495 6.978-4.504 9.016z"  horiz-adv-x="1024" />

    
    <glyph glyph-name="fm" unicode="&#58892;" d="M510.29333333 247.12533333c-72.36266667 0-131.29955555 58.93688889-131.29955555 131.29955556s58.93688889 131.29955555 131.29955555 131.29955556 131.29955555-58.93688889 131.29955556-131.29955556-58.93688889-131.29955555-131.29955556-131.29955556z m0 200.81777778c-38.34311111 0-69.51822222-31.17511111-69.51822222-69.51822222s31.17511111-69.51822222 69.51822222-69.51822222 69.51822222 31.17511111 69.51822222 69.51822222-31.17511111 69.51822222-69.51822222 69.51822222zM303.104 162.13333333000003c-8.53333333 0-16.95288889 3.41333333-22.98311111 10.24-50.85866667 56.77511111-78.73422222 129.93422222-78.73422222 206.05155556s27.98933333 149.27644445 78.73422222 206.05155556c11.37777778 12.74311111 30.94755555 13.76711111 43.57688889 2.38933333 12.74311111-11.37777778 13.76711111-30.94755555 2.38933333-43.57688889-40.61866667-45.39733333-62.91911111-103.87911111-62.91911111-164.75022222s22.30044445-119.46666667 62.91911111-164.864c11.37777778-12.74311111 10.24-32.19911111-2.38933333-43.57688889-5.91644445-5.34755555-13.312-7.96444445-20.59377778-7.96444445zM717.48266667 162.13333333000003c-7.39555555 0-14.67733333 2.61688889-20.59377778 7.85066667-12.74311111 11.37777778-13.76711111 30.94755555-2.38933334 43.57688889 40.61866667 45.39733333 62.91911111 103.87911111 62.91911112 164.864s-22.30044445 119.46666667-62.91911112 164.864c-11.37777778 12.74311111-10.24 32.19911111 2.38933334 43.57688889 12.74311111 11.37777778 32.19911111 10.35377778 43.57688889-2.38933333 50.74488889-56.66133333 78.73422222-129.82044445 78.73422222-206.05155556 0-76.11733333-27.98933333-149.39022222-78.73422222-206.05155556-6.03022222-6.71288889-14.44977778-10.24-22.98311111-10.24zM178.97244445 69.51822221999998c-8.76088889 0-17.52177778 3.75466667-23.66577778 11.03644445-69.97333333 83.28533333-108.43022222 189.09866667-108.43022222 297.984 0 107.40622222 37.54666667 212.08177778 105.81333333 294.79822222 10.92266667 13.08444445 30.37866667 15.01866667 43.46311111 4.096 13.19822222-10.80888889 15.01866667-30.37866667 4.20977778-43.46311111-59.16444445-71.68-91.70488889-162.36088889-91.70488889-255.43111111 0-94.32177778 33.33688889-186.02666667 93.98044444-258.16177778 10.92266667-13.08444445 9.32977778-32.54044445-3.75466667-43.57688889-5.80266667-4.89244445-12.85688889-7.28177778-19.9111111-7.28177778zM844.00355555 72.47644445000003c-6.94044445 0-13.88088889 2.27555555-19.68355555 7.05422222-13.19822222 10.80888889-15.01866667 30.37866667-4.20977778 43.46311111 59.16444445 71.68 91.70488889 162.36088889 91.70488889 255.43111111 0 94.32177778-33.33688889 186.02666667-93.98044444 258.16177778-10.92266667 13.08444445-9.32977778 32.54044445 3.75466666 43.57688888 13.08444445 11.03644445 32.54044445 9.32977778 43.57688889-3.75466666 69.97333333-83.28533333 108.43022222-189.09866667 108.43022223-297.984 0-107.40622222-37.54666667-212.08177778-105.81333334-294.79822222-6.03022222-7.39555555-14.79111111-11.15022222-23.77955556-11.15022222z"  horiz-adv-x="1024" />

    
    <glyph glyph-name="music" unicode="&#58882;" d="M511.53651428 18.32275899000001c-177.36053467 0-332.78274536 130.6257248-358.66069794 311.15341187C124.52593994 527.30732473 262.41294098 711.3884023 460.32134247 739.81552632c24.17850495 3.47614289 48.74324799 4.48036193 72.92175293 3.08990479 9.50145722-0.54073334 16.76273347-8.72898102 16.22200013-18.23043823-0.54073334-9.50145722-8.72898102-16.76273347-18.23043824-16.22200012-21.93832398 1.31320954-44.10839081 0.30899048-66.04671479-2.78091431C286.12796021 680.02586873 161.29580688 513.4027532 186.9420166 334.34277088 212.66547393 155.28278859 379.21134185 30.45063527000002 558.34857177 56.09684499000002c179.0599823 25.64620972 303.89213562 192.26932526 278.24592591 371.32930756-6.72054292 46.96655273-23.01979065 90.92044831-48.43425751 130.47122955-5.09834289 8.03375244-2.7809143 18.69392395 5.17559051 23.79226684 8.03375244 5.09834289 18.69392395 2.7809143 23.79226685-5.17559051 28.11813354-43.79940034 46.11682892-92.31090547 53.53260041-144.22130586 28.34987641-197.90840149-109.53712463-381.98947907-307.44552613-410.33935546-17.38071443-2.39467621-34.60693359-3.63063813-51.67865753-3.63063812zM717.24692536 641.78829701c-47.35279084 0-85.89935302 33.60271454-85.89935304 74.93019104s38.5465622 74.93019104 85.89935303 74.93019104 85.89935302-33.60271454 85.89935303-74.93019104-38.5465622-74.93019104-85.89935303-74.93019104z m-1e-8 115.33069611c-28.34987641 0-51.44691467-18.15319062-51.44691468-40.47775268s23.09703828-40.47775268 51.44691468-40.47775269c28.34987641 0 51.44691467 18.15319062 51.44691467 40.47775269s-23.09703828 40.47775268-51.44691467 40.47775268zM511.76825713 226.89133198000002c-84.89513398 0-153.95450592 69.05937195-153.95450591 153.95450593s69.05937195 153.95450592 153.95450592 153.95450592S665.72276307 465.8182195 665.72276307 380.92308552 596.66339112 226.89133198000002 511.76825713 226.89133198000002z m1e-8 273.53382112c-65.89221954 0-119.50206757-53.60984802-119.50206756-119.50206758 0-65.89221954 53.60984802-119.50206757 119.50206756-119.50206756s119.50206757 53.60984802 119.50206757 119.50206756c0 65.89221954-53.60984802 119.50206757-119.50206758 119.50206758zM648.49654389 363.69686635000005c-9.50145722 0-17.22621918 7.72476196-17.22621918 17.22621917V718.03169759c0 9.50145722 7.72476196 17.22621918 17.22621917 17.22621918s17.22621918-7.72476196 17.22621919-17.22621919v-337.18585968c0-9.42420959-7.72476196-17.14897156-17.22621919-17.14897154z"  horiz-adv-x="1024" />

    
    <glyph glyph-name="play-round" unicode="&#60430;" d="M546.904228 877.89427c-277.76918 0-502.94529-225.17611-502.94529-502.94529 0-277.77164 225.17488-502.94775 502.94529-502.94775 277.76795 0 502.94529 225.17611 502.94529 502.94775C1049.849518 652.71693 824.672178 877.89427 546.904228 877.89427L546.904228 877.89427zM546.904228-77.70165899999995c-249.992631 0-452.651868 202.659237-452.651868 452.651868 0 249.990172 202.659237 452.649408 452.651868 452.649408s452.650638-202.659237 452.650638-452.649408C999.554866 124.95757800000001 796.896859-77.70165899999995 546.904228-77.70165899999995L546.904228-77.70165899999995zM775.203924 410.593522c-78.267962 53.25591-220.1919 132.967608-301.004232 182.358388-33.132146 20.893592-60.993549 12.502952-63.667043-24.399633-1.938099-98.840588 0-289.550264 0-390.101445 1.681079-37.462125 34.709926-42.403293 63.37559-27.362121 80.72133 48.906255 219.456505 132.95777 300.588574 182.112436C773.968017 333.52334399999995 836.097862 367.69463599999995 775.203924 410.593522L775.203924 410.593522z"  horiz-adv-x="1085" />

    


  </font>
</defs>
</svg>
